<svg xmlns="http://www.w3.org/2000/svg" xmlns:xlink="http://www.w3.org/1999/xlink" version="1.1" fill="primary" x="0px" y="0px"
     viewBox="0 0 100 100" style="enable-background:new 0 0 100 100;" xml:space="preserve"><g><path fill="primary" d="M50,0C30.016,0,13.816,16.201,13.816,36.185C13.816,64.987,50,100,50,100s36.184-35.013,36.184-63.815   C86.184,16.201,69.984,0,50,0z M50,62.588c-14.583,0-26.404-11.821-26.404-26.403C23.596,21.602,35.417,9.78,50,9.78   c14.582,0,26.404,11.821,26.404,26.404C76.404,50.767,64.582,62.588,50,62.588z M64.527,27.567h-1.121v-3.682   c0-2.826-2.465-4.271-5.178-4.271h-8.227h-0.004h-8.227c-2.712,0-5.177,1.445-5.177,4.271v3.682h-1.121   c-0.713,0-1.291,0.561-1.291,1.251v6.339c0,0.691,0.578,1.251,1.291,1.251h1.121v10.279h1.354v2.789c0,0.98,0.82,1.775,1.832,1.775   h2.498c1.012,0,1.833-0.795,1.833-1.775v-2.789c1.703,0,10.005,0,11.708,0v2.789c0,0.98,0.82,1.775,1.832,1.775h2.498   c1.012,0,1.832-0.795,1.832-1.775v-2.789h1.426V36.408h1.121c0.713,0,1.291-0.56,1.291-1.251v-6.339   C65.818,28.128,65.24,27.567,64.527,27.567z M40.685,44.16c-1.19,0-2.156-0.936-2.156-2.09s0.966-2.09,2.156-2.09   c1.191,0,2.157,0.936,2.157,2.09S41.876,44.16,40.685,44.16z M48.461,36.691h-9.59V25.573h9.59V36.691z M51.539,36.691V25.573h9.59   v11.118H51.539z M59.314,44.16c-1.191,0-2.156-0.936-2.156-2.09s0.965-2.09,2.156-2.09s2.156,0.936,2.156,2.09   S60.506,44.16,59.314,44.16z"/></g>
  </svg>
