<svg xmlns="http://www.w3.org/2000/svg" viewBox="0 0 90 90" x="0px" y="0px">
  <title>crosshair</title>
  <path
    d="M60.29,61.79H29.71a1.5,1.5,0,0,1-1.5-1.5V29.71a1.5,1.5,0,0,1,1.5-1.5H60.29a1.5,1.5,0,0,1,1.5,1.5V60.29A1.5,1.5,0,0,1,60.29,61.79Zm-29.09-3H58.79V31.21H31.21Z"/>
  <rect x="39.42" y="39.42" width="11.16" height="11.16"/>
  <path d="M45,87.2a1.5,1.5,0,0,1-1.5-1.5V71.82a1.5,1.5,0,0,1,3,0V85.7A1.5,1.5,0,0,1,45,87.2Z"/>
  <path d="M85.7,46.5H71.82a1.5,1.5,0,0,1,0-3H85.7a1.5,1.5,0,0,1,0,3Z"/>
  <path d="M45,19.68a1.5,1.5,0,0,1-1.5-1.5V4.3a1.5,1.5,0,0,1,3,0V18.18A1.5,1.5,0,0,1,45,19.68Z"/>
  <path d="M18.18,46.5H4.3a1.5,1.5,0,0,1,0-3H18.18a1.5,1.5,0,0,1,0,3Z"/>
</svg>
